<svg xmlns="http://www.w3.org/2000/svg" width="600" height="220" viewBox="0 0 600 220">
  <defs>
    <linearGradient id="bg" x1="0%" y1="0%" x2="100%" y2="100%">
      <stop offset="0%" style="stop-color:#0d0d2b"/>
      <stop offset="100%" style="stop-color:#141432"/>
    </linearGradient>
    <pattern id="grid" x="0" y="0" width="24" height="24" patternUnits="userSpaceOnUse">
      <path d="M 24 0 L 0 0 0 24" fill="none" stroke="#2a2a5a" stroke-width="0.5" opacity="0.5"/>
    </pattern>
    <radialGradient id="glow1" cx="70%" cy="30%" r="35%">
      <stop offset="0%" style="stop-color:#4a90e2;stop-opacity:0.1"/>
      <stop offset="100%" style="stop-color:#4a90e2;stop-opacity:0"/>
    </radialGradient>
  </defs>
  <rect width="600" height="220" fill="url(#bg)"/>
  <rect width="600" height="220" fill="url(#grid)"/>
  <rect width="600" height="220" fill="url(#glow1)"/>

  <!-- Browser window (right side) -->
  <rect x="328" y="18" width="244" height="184" rx="8" fill="#0a0a24" stroke="#2a2a5a" stroke-width="1.5"/>
  <rect x="328" y="18" width="244" height="28" rx="8" fill="#16163a"/>
  <rect x="328" y="34" width="244" height="12" fill="#16163a"/>
  <circle cx="346" cy="32" r="4.5" fill="#ff5f57" opacity="0.8"/>
  <circle cx="360" cy="32" r="4.5" fill="#febc2e" opacity="0.8"/>
  <circle cx="374" cy="32" r="4.5" fill="#28c840" opacity="0.8"/>
  <rect x="386" y="24" width="172" height="12" rx="6" fill="#0d0d30" stroke="#2a2a5a" stroke-width="1"/>
  <text x="472" y="34" text-anchor="middle" fill="#5050a0" font-family="monospace" font-size="8">learnhub.dev</text>

  <rect x="340" y="54" width="220" height="8" rx="3" fill="#1e1e4a" opacity="0.8"/>
  <rect x="340" y="68" width="145" height="6" rx="3" fill="#1a1a40" opacity="0.6"/>

  <!-- HTML block -->
  <rect x="340" y="82" width="102" height="38" rx="4" fill="#2a1a08" stroke="#e67e22" stroke-width="1" opacity="0.9"/>
  <text x="391" y="97" text-anchor="middle" fill="#e67e22" font-family="monospace" font-size="9" font-weight="bold">&lt;html&gt;</text>
  <text x="391" y="111" text-anchor="middle" fill="#e67e22" font-family="monospace" font-size="8">&lt;/html&gt;</text>

  <!-- CSS block -->
  <rect x="452" y="82" width="108" height="38" rx="4" fill="#08182a" stroke="#4a90e2" stroke-width="1" opacity="0.9"/>
  <text x="506" y="97" text-anchor="middle" fill="#4a90e2" font-family="monospace" font-size="9" font-weight="bold">.class {}</text>
  <text x="506" y="111" text-anchor="middle" fill="#4a90e2" font-family="monospace" font-size="8">color: blue</text>

  <!-- JS block -->
  <rect x="340" y="128" width="220" height="38" rx="4" fill="#1a1a08" stroke="#f1c40f" stroke-width="1" opacity="0.9"/>
  <text x="450" y="143" text-anchor="middle" fill="#f1c40f" font-family="monospace" font-size="9" font-weight="bold">function App() {'{ }'}</text>
  <text x="450" y="157" text-anchor="middle" fill="#f1c40f" font-family="monospace" font-size="8">return &lt;Component/&gt;</text>

  <rect x="340" y="174" width="82" height="8" rx="3" fill="#1e1e4a" opacity="0.5"/>
  <rect x="432" y="174" width="54" height="8" rx="10" fill="#4a90e2" opacity="0.7"/>

  <!-- Left side code editor -->
  <rect x="28" y="18" width="285" height="184" rx="8" fill="#0a0a20" stroke="#1e1e4a" stroke-width="1.5"/>
  <rect x="28" y="18" width="285" height="24" rx="8" fill="#141430"/>
  <rect x="28" y="30" width="285" height="12" fill="#141430"/>
  <circle cx="46" cy="30" r="4" fill="#ff5f57" opacity="0.7"/>
  <circle cx="60" cy="30" r="4" fill="#febc2e" opacity="0.7"/>
  <circle cx="74" cy="30" r="4" fill="#28c840" opacity="0.7"/>
  <text x="172" y="34" text-anchor="middle" fill="#3a3a6a" font-family="monospace" font-size="9">App.jsx</text>

  <text x="42" y="60" fill="#3a3a5a" font-family="monospace" font-size="10">1</text>
  <text x="58" y="60" fill="#e67e22" font-family="monospace" font-size="10">import</text>
  <text x="104" y="60" fill="#a0a0d0" font-family="monospace" font-size="10">React from 'react'</text>

  <text x="42" y="76" fill="#3a3a5a" font-family="monospace" font-size="10">2</text>
  <text x="58" y="76" fill="#f1c40f" font-family="monospace" font-size="10">function</text>
  <text x="113" y="76" fill="#4a90e2" font-family="monospace" font-size="10">App()</text>
  <text x="146" y="76" fill="#a0a0d0" font-family="monospace" font-size="10">{'{'}</text>

  <text x="42" y="92" fill="#3a3a5a" font-family="monospace" font-size="10">3</text>
  <text x="68" y="92" fill="#e67e22" font-family="monospace" font-size="10">return</text>
  <text x="112" y="92" fill="#a0a0d0" font-family="monospace" font-size="10">(</text>

  <text x="42" y="108" fill="#3a3a5a" font-family="monospace" font-size="10">4</text>
  <text x="78" y="108" fill="#e67e22" font-family="monospace" font-size="10">&lt;div</text>
  <text x="108" y="108" fill="#4a90e2" font-family="monospace" font-size="10">className</text>
  <text x="174" y="108" fill="#a0a0d0" font-family="monospace" font-size="10">="app"&gt;</text>

  <text x="42" y="124" fill="#3a3a5a" font-family="monospace" font-size="10">5</text>
  <text x="88" y="124" fill="#28c840" font-family="monospace" font-size="10">&lt;h1&gt;Hello World&lt;/h1&gt;</text>

  <text x="42" y="140" fill="#3a3a5a" font-family="monospace" font-size="10">6</text>
  <text x="78" y="140" fill="#e67e22" font-family="monospace" font-size="10">&lt;/div&gt;</text>

  <text x="42" y="156" fill="#3a3a5a" font-family="monospace" font-size="10">7</text>
  <text x="58" y="156" fill="#a0a0d0" font-family="monospace" font-size="10">{'}'}</text>

  <text x="42" y="172" fill="#3a3a5a" font-family="monospace" font-size="10">8</text>
  <text x="58" y="172" fill="#f1c40f" font-family="monospace" font-size="10">export default</text>
  <text x="152" y="172" fill="#4a90e2" font-family="monospace" font-size="10">App</text>

  <rect x="177" y="164" width="6" height="10" fill="#4a90e2" opacity="0.9"/>
</svg>
